<mxfile host="Electron" agent="Mozilla/5.0 (Windows NT 10.0; Win64; x64) AppleWebKit/537.36 (KHTML, like Gecko) draw.io/26.2.2 Chrome/134.0.6998.178 Electron/35.1.2 Safari/537.36" version="26.2.2">
  <diagram name="Page-1" id="qxo9YRTHx-pH2Mb82lR0">
    <mxGraphModel dx="1491" dy="1031" grid="1" gridSize="10" guides="1" tooltips="1" connect="1" arrows="1" fold="1" page="1" pageScale="1" pageWidth="850" pageHeight="1100" math="0" shadow="0">
      <root>
        <mxCell id="0" />
        <mxCell id="1" parent="0" />
        <mxCell id="d7E7yWHLZi3aEIFGM-Nx-1" value="&lt;font style=&quot;font-size: 32px;&quot;&gt;Welcome to Valorent Agent Selector!&lt;/font&gt;" style="rounded=1;whiteSpace=wrap;html=1;" vertex="1" parent="1">
          <mxGeometry width="850" height="60" as="geometry" />
        </mxCell>
        <mxCell id="d7E7yWHLZi3aEIFGM-Nx-2" value="Choose amongst the options below" style="rounded=0;whiteSpace=wrap;html=1;" vertex="1" parent="1">
          <mxGeometry x="270" y="100" width="310" height="40" as="geometry" />
        </mxCell>
        <mxCell id="d7E7yWHLZi3aEIFGM-Nx-3" value="Option 1" style="rounded=0;whiteSpace=wrap;html=1;" vertex="1" parent="1">
          <mxGeometry x="440" y="260" width="120" height="60" as="geometry" />
        </mxCell>
        <mxCell id="d7E7yWHLZi3aEIFGM-Nx-4" value="Option 4" style="rounded=0;whiteSpace=wrap;html=1;" vertex="1" parent="1">
          <mxGeometry x="680" y="500" width="120" height="60" as="geometry" />
        </mxCell>
        <mxCell id="d7E7yWHLZi3aEIFGM-Nx-6" value="Option 3" style="rounded=0;whiteSpace=wrap;html=1;" vertex="1" parent="1">
          <mxGeometry x="600" y="420" width="120" height="60" as="geometry" />
        </mxCell>
        <mxCell id="d7E7yWHLZi3aEIFGM-Nx-8" value="Option 2" style="rounded=0;whiteSpace=wrap;html=1;" vertex="1" parent="1">
          <mxGeometry x="520" y="340" width="120" height="60" as="geometry" />
        </mxCell>
        <mxCell id="d7E7yWHLZi3aEIFGM-Nx-10" value="Image related to Valo." style="shape=note;whiteSpace=wrap;html=1;backgroundOutline=1;darkOpacity=0.05;" vertex="1" parent="1">
          <mxGeometry x="30" y="200" width="300" height="440" as="geometry" />
        </mxCell>
        <mxCell id="d7E7yWHLZi3aEIFGM-Nx-11" value="" style="rounded=1;whiteSpace=wrap;html=1;" vertex="1" parent="1">
          <mxGeometry x="70" y="730" width="710" height="40" as="geometry" />
        </mxCell>
        <mxCell id="d7E7yWHLZi3aEIFGM-Nx-12" style="edgeStyle=orthogonalEdgeStyle;rounded=0;orthogonalLoop=1;jettySize=auto;html=1;exitX=0.5;exitY=1;exitDx=0;exitDy=0;" edge="1" parent="1" source="d7E7yWHLZi3aEIFGM-Nx-11" target="d7E7yWHLZi3aEIFGM-Nx-11">
          <mxGeometry relative="1" as="geometry" />
        </mxCell>
      </root>
    </mxGraphModel>
  </diagram>
</mxfile>
